<?xml version="1.0" encoding="UTF-8" standalone="no"?>
<!-- Created with Inkscape (http://www.inkscape.org/) -->

<svg
   xmlns:dc="http://purl.org/dc/elements/1.1/"
   xmlns:cc="http://creativecommons.org/ns#"
   xmlns:rdf="http://www.w3.org/1999/02/22-rdf-syntax-ns#"
   xmlns:svg="http://www.w3.org/2000/svg"
   xmlns="http://www.w3.org/2000/svg"
   xmlns:sodipodi="http://sodipodi.sourceforge.net/DTD/sodipodi-0.dtd"
   xmlns:inkscape="http://www.inkscape.org/namespaces/inkscape"
   version="1.1"
   id="svg4485"
   width="203.97086"
   height="196.5307"
   viewBox="0 0 203.97085 196.53069"
   sodipodi:docname="floorplan_edit20180604.svg"
   inkscape:version="0.92.3 (3ce5693, 2018-03-11)">
  <metadata
     id="metadata141">
    <rdf:RDF>
      <cc:Work
         rdf:about="">
        <dc:format>image/svg+xml</dc:format>
        <dc:type
           rdf:resource="http://purl.org/dc/dcmitype/StillImage" />
        <dc:title></dc:title>
      </cc:Work>
    </rdf:RDF>
  </metadata>
  <defs
     id="defs4489" />
  <sodipodi:namedview
     pagecolor="#ffffff"
     bordercolor="#666666"
     borderopacity="1"
     objecttolerance="10"
     gridtolerance="10000"
     guidetolerance="10000"
     inkscape:pageopacity="0"
     inkscape:pageshadow="2"
     inkscape:window-width="1366"
     inkscape:window-height="714"
     id="namedview4487"
     showgrid="true"
     inkscape:zoom="3.0813953"
     inkscape:cx="104.59125"
     inkscape:cy="98.370157"
     inkscape:window-x="0"
     inkscape:window-y="25"
     inkscape:window-maximized="1"
     inkscape:current-layer="svg4485"
     inkscape:snap-nodes="true"
     inkscape:snap-grids="true"
     inkscape:snap-object-midpoints="true"
     inkscape:snap-global="false"
     inkscape:snap-bbox="false"
     inkscape:object-paths="true"
     inkscape:snap-others="true"
     inkscape:snap-smooth-nodes="false"
     inkscape:snap-midpoints="true"
     inkscape:snap-center="false"
     inkscape:snap-text-baseline="true"
     inkscape:object-nodes="true"
     inkscape:snap-intersection-paths="true">
    <inkscape:grid
       empspacing="1"
       type="xygrid"
       id="grid4496"
       spacingx="1"
       spacingy="1"
       originx="-3.329506"
       originy="-3.044017" />
  </sodipodi:namedview>
  <g
     id="sensor.zerosensor01_sensor_template"
     inkscape:label="sensor.zerosensor01_sensor_template">
    <circle
       r="11"
       cy="105.13698"
       cx="119.34595"
       id="path5302-7-5"
       style="fill:#0099ff;fill-opacity:1;stroke-width:1.0999999" />
    <path
       style="fill:#ffffff;stroke-width:0.75"
       inkscape:connector-curvature="0"
       id="path4630"
       d="m 125.41887,101.61557 h 1.5 v 1.5 h -1.5 v -1.5 m -12,-2.250002 h 12 a 1.5,1.5 0 0 1 1.5,1.500002 h -2.25 v 1.5 h -10.5 v 3 h 2.25 v 2.25 h 8.25 v 0.75 h 2.25 a 1.5,1.5 0 0 1 -1.5,1.5 h -3 v 0.75 h -1.5 v -0.75 h -2.25 v 0.75 h -3 v -0.75 h -2.25 a 1.5,1.5 0 0 1 -1.5,-1.5 v -7.5 a 1.5,1.5 0 0 1 1.5,-1.500002 m 11.25,7.500002 h -7.5 v -3.75 h 7.5 v 0.75 h 2.25 v 1.5 h -2.25 v 1.5 m -4.5,-2.25 v 1.5 h 1.5 v -1.5 h -1.5 m -6,-4.5 v 1.5 h 0.75 v -1.5 h -0.75 m 1.5,0 v 1.5 h 0.75 v -1.5 h -0.75 m 1.5,0 v 1.5 h 0.75 v -1.5 h -0.75 m 1.5,0 v 1.5 h 0.75 v -1.5 h -0.75 m 1.5,0 v 1.5 h 0.75 v -1.5 h -0.75 m 1.5,0 v 1.5 h 0.75 v -1.5 h -0.75 m 3.75,6 h 1.5 v 1.5 h -1.5 z" />
  </g>
  <g
     id="sensor.cpu_load_total"
     inkscape:label="sensor.cpu_load_total"
     transform="translate(0.97358492,21.09434)">
    <circle
       r="11"
       cy="146.64929"
       cx="93.221725"
       id="path5302-7-6-1"
       style="fill:#0099ff;fill-opacity:1;stroke-width:1.0999999" />
    <path
       inkscape:label="dsadsa"
       style="fill:#ffffff;stroke-width:0.75"
       inkscape:connector-curvature="0"
       id="dsadsa"
       d="m 86.820666,141.4573 c -0.8325,0 -1.5,0.6675 -1.5,1.5 v 7.5 c 0,0.8325 0.6675,1.5 1.5,1.5 H 98.82067 c 0.8325,0 1.5,-0.6675 1.5,-1.5 v -7.5 c 0,-0.8325 -0.6675,-1.5 -1.5,-1.5 H 86.820666 m 0.375,1.5 a 0.75,0.75 0 0 1 0.75,0.75 0.75,0.75 0 0 1 -0.75,0.75 0.75,0.75 0 0 1 -0.75,-0.75 0.75,0.75 0 0 1 0.75,-0.75 m 1.875,0 h 9.750004 v 7.5 h -9.750004 v -7.5 m 0.75,0.75 v 6 h 2.25 v -6 h -2.25 m 3,0 v 6 h 2.25 v -6 h -2.25 m 3,0 v 6 h 2.250004 v -6 h -2.250004 m -5.25,0.75 h 0.75 v 0.75 h -0.75 v -0.75 m 3,0 h 0.75 v 0.75 h -0.75 v -0.75 m 3,0 h 0.750008 v 0.75 h -0.750008 z" />
  </g>
  <g
     id="sensor.netmonitor"
     inkscape:label="sensor.netmonitor"
     transform="translate(0.7018868,26.611321)">
    <circle
       r="11"
       cy="155.04506"
       cx="69.942581"
       id="path5302-7-6"
       style="fill:#0099ff;fill-opacity:1;stroke-width:1.0999999" />
    <path
       inkscape:label="dsadsadsa"
       style="fill:#ffffff;stroke-width:0.75"
       inkscape:connector-curvature="0"
       id="dsadsadsa"
       d="m 63.536861,155.88612 h 12 a 0.75,0.75 0 0 1 0.75,0.75 v 3 a 0.75,0.75 0 0 1 -0.75,0.75 h -12 a 0.75,0.75 0 0 1 -0.75,-0.75 v -3 a 0.75,0.75 0 0 1 0.75,-0.75 m 3.75,3 h 0.75 v -1.5 h -0.75 v 1.5 m -3,-1.5 v 1.5 h 1.5 v -1.5 h -1.5 m 10.5,-6.0525 -1.05,1.0575 c -1.0875,-1.0875 -2.5875,-1.755 -4.2525,-1.755 -1.6575,0 -3.1575,0.6675 -4.245,1.755 l -1.05,-1.0575 c 1.3575,-1.3575 3.2325,-2.1975 5.295,-2.1975 2.07,0 3.945,0.84 5.3025,2.1975 m -2.1225,2.1225 -1.05,1.0575 c -0.5475,-0.54 -1.2975,-0.8775 -2.13,-0.8775 -0.8325,0 -1.5825,0.3375 -2.1225,0.8775 l -1.05,-1.0575 c 0.81,-0.8175 1.935,-1.32 3.1725,-1.32 1.2375,0 2.3625,0.5025 3.18,1.32 z" />
  </g>
  <g
     id="sensor.webhost_sensor_template"
     inkscape:label="sensor.webhost_sensor_template"
     transform="translate(0.32452831,22.067925)">
    <circle
       r="11"
       cy="146.64929"
       cx="46.663425"
       id="path5302-7-3"
       style="fill:#0099ff;fill-opacity:1;stroke-width:1.0999999" />
    <path
       inkscape:label="dsadsadsadsa"
       style="fill:#ffffff;stroke-width:0.75"
       inkscape:connector-curvature="0"
       id="dsadsadsadsad"
       d="m 40.601634,138.34552 h 12 a 0.75,0.75 0 0 1 0.75,0.75 v 3 a 0.75,0.75 0 0 1 -0.75,0.75 h -12 a 0.75,0.75 0 0 1 -0.75,-0.75 v -3 a 0.75,0.75 0 0 1 0.75,-0.75 m 0,6 h 12 a 0.75,0.75 0 0 1 0.75,0.75 v 0.5025 l -1.875,-0.8325 -4.875,2.16 v 1.92 h -6 a 0.75,0.75 0 0 1 -0.75,-0.75 v -3 a 0.75,0.75 0 0 1 0.75,-0.75 m 0,6 h 6 c 0.045,1.6875 0.75,3.3 1.845,4.5 h -7.845 a 0.75,0.75 0 0 1 -0.75,-0.75 v -3 a 0.75,0.75 0 0 1 0.75,-0.75 m 3.75,-9 h 0.75 v -1.5 h -0.75 v 1.5 m 0,6 h 0.75 v -1.5 h -0.75 v 1.5 m 0,6 h 0.75 v -1.5 h -0.75 v 1.5 m -3,-13.5 v 1.5 h 1.5 v -1.5 h -1.5 m 0,6 v 1.5 h 1.5 v -1.5 h -1.5 m 0,6 v 1.5 h 1.5 v -1.5 h -1.5 m 10.125,-5.25 3.375,1.5 v 2.25 c 0,2.085 -1.44,4.0275 -3.375,4.5 -1.935,-0.4725 -3.375,-2.415 -3.375,-4.5 v -2.25 l 3.375,-1.5 m 0,1.455 -1.875,0.84 v 1.995 c 0,1.155 0.8025,2.235 1.875,2.505 z" />
  </g>
  <g
     inkscape:groupmode="layer"
     id="layer3"
     inkscape:label="Layer 1"
     style="display:none"
     transform="translate(-3.3295062,27.574713)" />
  <g
     id="g4495"
     style="fill:#0099ff;fill-opacity:1"
     transform="matrix(1,0,0,1.1610464,-3.3295062,-1.5190041)">
    <rect
       style="fill:#0099ff;fill-opacity:1;stroke-width:1.03429544"
       y="1.4134266"
       x="119.44877"
       height="52.664631"
       width="2.5"
       id="rect3983" />
    <rect
       style="fill:#0099ff;fill-opacity:1;stroke-width:1.04176331"
       y="1.6040816"
       x="192.61572"
       height="53.427879"
       width="2.5"
       id="rect3983-6" />
    <rect
       style="fill:#0099ff;fill-opacity:1;stroke-width:0.50121713"
       y="52.150337"
       x="109.03975"
       height="2.5"
       width="12.367491"
       id="rect3983-2" />
    <rect
       style="fill:#0099ff;fill-opacity:1;stroke-width:0.54564637"
       y="53.209362"
       x="192.64311"
       height="2.5"
       width="14.657244"
       id="rect3983-2-9" />
    <rect
       style="fill:#0099ff;fill-opacity:1;stroke-width:0.6762898"
       y="31.561678"
       x="108.65813"
       height="22.51622"
       width="2.5"
       id="rect3983-1" />
    <rect
       style="fill:#0099ff;fill-opacity:1;stroke-width:1.53511584"
       y="53.314327"
       x="204.44611"
       height="116.01445"
       width="2.5"
       id="rect3983-6-2" />
    <rect
       style="fill:#0099ff;fill-opacity:1;stroke-width:1.46643496"
       y="31.075089"
       x="4.5017662"
       height="2.5"
       width="105.86573"
       id="rect3983-2-7" />
    <rect
       style="fill:#0099ff;fill-opacity:1;stroke-width:0.82593739"
       y="31.752489"
       x="35.004417"
       height="33.583359"
       width="2.5"
       id="rect3983-1-0" />
    <rect
       style="fill:#0099ff;fill-opacity:1;stroke-width:1.30294669"
       y="31.18005"
       x="3.3295062"
       height="83.576294"
       width="2.5"
       id="rect3983-1-0-9" />
    <rect
       style="fill:#0099ff;fill-opacity:1;stroke-width:1.46643496"
       y="84.121025"
       x="3.5477004"
       height="2.5"
       width="105.86573"
       id="rect3983-2-7-3" />
    <rect
       style="fill:#0099ff;fill-opacity:1;stroke-width:0.51339138"
       y="73.158844"
       x="35.004417"
       height="12.975585"
       width="2.5"
       id="rect3983-1-0-6" />
    <rect
       style="fill:#0099ff;fill-opacity:1;stroke-width:0.87603843"
       y="83.84436"
       x="108.2765"
       height="37.781239"
       width="2.5"
       id="rect3983-1-0-0" />
    <rect
       style="fill:#0099ff;fill-opacity:1;stroke-width:1.30118024"
       y="133.73233"
       x="123.75971"
       height="2.5"
       width="83.349823"
       id="rect3983-2-7-3-6" />
    <rect
       style="fill:#0099ff;fill-opacity:1;stroke-width:1.86024213"
       y="168.07863"
       x="36.367489"
       height="2.5"
       width="170.36043"
       id="rect3983-2-7-3-6-2" />
    <rect
       style="fill:#0099ff;fill-opacity:1;stroke-width:0.88662231"
       y="133.73233"
       x="76.819778"
       height="2.5"
       width="38.699654"
       id="rect3983-2-7-3-6-6" />
    <rect
       style="fill:#0099ff;fill-opacity:1;stroke-width:0.897888"
       y="129.63942"
       x="108.2765"
       height="39.689365"
       width="2.5"
       id="rect3983-1-0-6-1" />
    <rect
       style="fill:#0099ff;fill-opacity:1;stroke-width:0.99380493"
       y="133.73233"
       x="18.049467"
       height="2.5"
       width="48.621918"
       id="rect3983-2-7-3-6-6-8" />
    <rect
       style="fill:#0099ff;fill-opacity:1;stroke-width:0.7775948"
       y="85.180054"
       x="87.668724"
       height="29.767105"
       width="2.5"
       id="rect3983-1-0-0-9" />
    <rect
       style="fill:#0099ff;fill-opacity:1;stroke-width:0.7775948"
       y="84.989235"
       x="60.191696"
       height="29.767105"
       width="2.5"
       id="rect3983-1-0-0-9-2" />
    <rect
       style="fill:#0099ff;fill-opacity:1;stroke-width:0.79925787"
       y="111.97968"
       x="3.5477009"
       height="2.5"
       width="31.448769"
       id="rect3983-2-7-3-0" />
    <rect
       style="fill:#0099ff;fill-opacity:1;stroke-width:0.7228657"
       y="111.97969"
       x="44.95406"
       height="2.5"
       width="25.724386"
       id="rect3983-2-7-3-0-2" />
    <rect
       style="fill:#0099ff;fill-opacity:1;stroke-width:0.45244598"
       y="112.3613"
       x="80.254417"
       height="2.5"
       width="10.077743"
       id="rect3983-2-7-3-0-2-3" />
    <rect
       style="fill:#0099ff;fill-opacity:1;stroke-width:0.84907717"
       y="134.60054"
       x="35.76767"
       height="35.491486"
       width="2.5"
       id="rect3983-1-0-0-9-2-7" />
    <rect
       style="fill:#0099ff;fill-opacity:1;stroke-width:0.34100556"
       y="130.21185"
       x="17.831272"
       height="5.7247009"
       width="2.5"
       id="rect3983-1-0-0-9-2-7-5" />
    <rect
       style="fill:#0099ff;fill-opacity:1;stroke-width:0.44023138"
       y="113.0387"
       x="17.831272"
       height="9.5409555"
       width="2.5"
       id="rect3983-1-0-0-9-2-7-5-9" />
    <rect
       style="fill:#0099ff;fill-opacity:1;stroke-width:0.40736708"
       y="1.3083061"
       x="119.94346"
       height="2.5"
       width="8.1696157"
       id="rect3983-2-7-3-0-2-2" />
    <rect
       style="fill:#0099ff;fill-opacity:1;stroke-width:0.40736708"
       y="1.3083062"
       x="187.10953"
       height="2.5"
       width="8.1696157"
       id="rect3983-2-7-3-0-2-2-2" />
    <rect
       style="fill:#0099ff;fill-opacity:1;stroke-width:0.7894994"
       y="45.576855"
       x="120.5159"
       height="2.5"
       width="30.685513"
       id="rect3983-2-8" />
    <rect
       style="fill:#0099ff;fill-opacity:1;stroke-width:0.76961142"
       y="45.445229"
       x="165.5477"
       height="2.5"
       width="29.15901"
       id="rect3983-2-8-9" />
  </g>
  <text
     xml:space="preserve"
     style="font-style:normal;font-weight:normal;font-size:10px;line-height:1.25;font-family:sans-serif;letter-spacing:0px;word-spacing:0px;fill:#000000;fill-opacity:1;stroke:none;stroke-width:0.25"
     x="143.03238"
     y="24.992622"
     id="sensor.weather_yr_temperature"
     inkscape:label="sensor.weather_yr_temperature"><tspan
       sodipodi:role="line"
       id="tspan3975"
       x="143.03238"
       y="24.992622"
       style="stroke-width:0.25">---</tspan></text>
  <circle
     style="fill:#0099ff;fill-opacity:1;stroke-width:1.0999999"
     id="path5302"
     cx="119.34595"
     cy="128.46983"
     r="11" />
  <path
     d="m 112.18735,122.39519 h 14.25 c 0.63,0 1.125,0.4875 1.125,1.125 v 8.62501 c 0,0.6375 -0.495,1.125 -1.125,1.125 h -14.25 c -0.6375,0 -1.125,-0.4875 -1.125,-1.125 v -8.62501 c 0,-0.6375 0.4875,-1.125 1.125,-1.125 m 5.4075,3 v 4.87501 l 4.2825,-2.47501 -4.2825,-2.4 m 5.655,9.375 h -7.95 c -0.225,0 -0.375,-0.15 -0.375,-0.375 0,-0.225 0.15,-0.375 0.375,-0.375 h 8.025 c 0.225,0 0.375,0.15 0.375,0.375 0,0.225 -0.225,0.375 -0.45,0.375 z"
     id="media_player.samsungsmarttv"
     inkscape:connector-curvature="0"
     style="fill:#ffffff;stroke-width:0.75"
     inkscape:label="media_player.samsungsmarttv" />
  <text
     xml:space="preserve"
     style="font-style:normal;font-weight:normal;font-size:10px;line-height:1.25;font-family:sans-serif;letter-spacing:0px;word-spacing:0px;fill:#000000;fill-opacity:1;stroke:none;stroke-width:0.25"
     x="59.435345"
     y="167.17184"
     id="sensor.office_temperature_template"
     inkscape:label="sensor.office_temperature_template"><tspan
       sodipodi:role="line"
       id="tspan3975-6"
       x="59.435345"
       y="167.17184"
       style="stroke-width:0.25">---</tspan></text>
  <g
     inkscape:groupmode="layer"
     id="layer1"
     inkscape:label="Black"
     transform="translate(-3.3295062,37.574713)">
    <circle
       style="fill:#0099ff;fill-opacity:1;stroke-width:1.0999999"
       id="path5302-7"
       cx="22.458799"
       cy="34.624443"
       r="11"
       inkscape:label="switch.kitchen_01" />
    <path
       d="m 22.687313,31.35594 -0.9975,0.0675 c -0.645,-0.765 -2.4525,-2.6925 -4.2525,-2.6925 0,0 -1.4775,2.22 -0.03,5.1825 -0.4125,0.6225 -0.6675,0.945 -0.72,1.6875 l -1.4475,0.2175 0.1575,0.735 1.32,-0.195 0.105,0.5325 -1.1775,0.705 0.3525,0.6675 1.0875,-0.6675 c 0.8625,1.83 3.045,2.76 5.6025,2.76 2.5575,0 4.74,-0.93 5.6025,-2.76 l 1.0875,0.6675 0.3525,-0.6675 -1.1775,-0.705 0.105,-0.5325 1.32,0.195 0.1575,-0.735 -1.4475,-0.2175 c -0.0525,-0.7425 -0.3075,-1.065 -0.72,-1.6875 1.4475,-2.9625 -0.03,-5.1825 -0.03,-5.1825 -1.8,0 -3.6075,1.9275 -4.2525,2.6925 l -0.9975,-0.0675 m -2.25,2.25 a 0.75,0.75 0 0 1 0.75,0.75 0.75,0.75 0 0 1 -0.75,0.75 0.75,0.75 0 0 1 -0.75,-0.75 0.75,0.75 0 0 1 0.75,-0.75 m 4.5,0 a 0.75,0.75 0 0 1 0.75,0.75 0.75,0.75 0 0 1 -0.75,0.75 0.75,0.75 0 0 1 -0.75,-0.75 0.75,0.75 0 0 1 0.75,-0.75 m -3,2.25 h 1.5 l -0.525,1.0425 c 0.15,0.48 0.57,0.8325 1.0875,0.8325 a 1.125,1.125 0 0 0 1.125,-1.125 h 0.375 a 1.5,1.5 0 0 1 -1.5,1.5 c -0.5625,0 -1.05,-0.3075 -1.3125,-0.75 v 0 0 c -0.2625,0.4425 -0.75,0.75 -1.3125,0.75 a 1.5,1.5 0 0 1 -1.5,-1.5 h 0.375 a 1.125,1.125 0 0 0 1.125,1.125 c 0.5175,0 0.9375,-0.3525 1.0875,-0.8325 z"
       id="switch.kitchen_01"
       inkscape:connector-curvature="0"
       style="fill:#ffffff;stroke-width:0.75"
       inkscape:label="switch.kitchen_01" />
  </g>
  <g
     id="sensor.callmonitor"
     inkscape:label="sensor.callmonitor">
    <circle
       inkscape:label=""
       r="11"
       cy="104.43523"
       cx="141.90309"
       id="path5302-7-7"
       style="fill:#0099ff;fill-opacity:1;stroke-width:1.0999999"
       transform="translate(-3.3295062,37.574713)" />
    <path
       style="fill:#ffffff;stroke-width:0.75"
       inkscape:connector-curvature="0"
       id="path4743"
       d="m 134.53104,141.22835 c 1.08,2.1225 2.82,3.8625 4.9425,4.9425 l 1.65,-1.65 c 0.21,-0.21 0.5025,-0.27 0.765,-0.1875 0.84,0.2775 1.74,0.4275 2.6775,0.4275 a 0.75,0.75 0 0 1 0.75,0.75 v 2.625 a 0.75,0.75 0 0 1 -0.75,0.75 12.75,12.75 0 0 1 -12.75,-12.75 0.75,0.75 0 0 1 0.75,-0.75 h 2.625 a 0.75,0.75 0 0 1 0.75,0.75 c 0,0.9375 0.15,1.8375 0.4275,2.6775 0.0825,0.2625 0.0225,0.555 -0.1875,0.765 z" />
  </g>
</svg>
